<svg xmlns="http://www.w3.org/2000/svg" viewBox="0 0 256 256" data-poke5e-ball-background="true">
  <title>Camino Recluta</title>
  <circle data-role="ball-top" cx="128" cy="128" r="118" fill="#4d394f"/>
  <path data-role="ball-bottom" d="M10 128a118 118 0 0 0 236 0Z" fill="#302331"/>
  <path data-role="ball-band" d="M12 128h232" stroke="#18212b" stroke-width="14"/>
  <circle data-role="ball-button" cx="128" cy="128" r="63" fill="#f7f3e8" stroke="#18212b" stroke-width="10"/>
  <g data-poke5e-emblem="true" transform="translate(48 48) scale(.625)"><path d="M62 190c8-52 26-84 66-125 40 41 58 73 66 125Z" fill="#4d394f" stroke="#18212b" stroke-width="9" stroke-linejoin="round"/><path d="M92 142c19-13 53-13 72 0-7 26-20 42-36 42s-29-16-36-42Z" fill="#4d394f" stroke="#18212b" stroke-width="8"/><path d="m103 148 15 7m35-7-15 7" stroke="#4d394f" stroke-width="7" stroke-linecap="round"/></g>
  <circle data-role="ball-outline" cx="128" cy="128" r="118" fill="none" stroke="#18212b" stroke-width="12"/>
</svg>
