<svg xmlns="http://www.w3.org/2000/svg" viewBox="0 0 256 256" data-poke5e-ball-background="true">
  <title>Especialización Acero — Trabajador</title>
  <circle data-role="ball-top" cx="128" cy="128" r="118" fill="#5a8ea2"/>
  <path data-role="ball-bottom" d="M10 128a118 118 0 0 0 236 0Z" fill="#385864"/>
  <path data-role="ball-band" d="M12 128h232" stroke="#18212b" stroke-width="14"/>
  <circle data-role="ball-button" cx="128" cy="128" r="63" fill="#f7f3e8" stroke="#18212b" stroke-width="10"/>
  <g data-poke5e-emblem="true" transform="translate(48 48) scale(.625)"><path d="M110 46h36l7 24 23-10 18 31-18 17 18 17-18 31-23-10-7 24h-36l-7-24-23 10-18-31 18-17-18-17 18-31 23 10Z" fill="#5a8ea2" stroke="#18212b" stroke-width="9" stroke-linejoin="round"/><circle cx="128" cy="108" r="27" fill="#5a8ea2" stroke="#18212b" stroke-width="9"/></g>
  <circle data-role="ball-outline" cx="128" cy="128" r="118" fill="none" stroke="#18212b" stroke-width="12"/>
</svg>
